<?xml version="1.0" encoding="UTF-8"?>
<svg id="Layer_2" data-name="Layer 2" xmlns="http://www.w3.org/2000/svg" viewBox="0 0 512.74 141.43">
  <defs>
    <style>
      .cls-1 {
        fill: #fff;
      }
    </style>
  </defs>
  <g id="Layer_1-2" data-name="Layer 1">
    <path d="M256.58,61.63c-.88-.45-1.51-.74-2.11-1.07-1.33-.73-2.75-1.04-4.24-.78-.45,.08-.9,.48-1.24,.84-1.1,1.17-2.12,2.42-3.22,3.59-1.03,1.09-2.02,2.25-3.22,3.13-.97,.71-2.18,1.22-3.36,1.48-2.94,.63-5.82,1.78-8.91,1.41-2.13-.26-3.68,1.09-5.36,1.94-2.23,1.13-4.22,2.75-6.45,3.9-2.05,1.07-4.34,1.68-6.4,2.72-1.72,.87-3.51,.41-5.23,.75-1.87,.37-3.69,.31-5.56,0-.58-.09-1.34,.29-1.86,.67-1.92,1.41-3.69,3.03-5.67,4.34-1.41,.93-3.04,1.54-4.61,2.2-1.95,.82-3.94,1.56-5.94,2.27-.41,.15-.95,.03-1.41-.06-.78-.14-1.56-.34-2.33-.55-1.27-.34-2.56-.63-3.81-1.06-1.03-.35-1.98-.91-3.01-1.27-.19-.07-.78,.37-.83,.64-.13,.68-.12,1.4-.06,2.09,.15,1.55-.71,2.77-1.14,4.15-.53,1.69-1.18,2.82-3.06,3.08-.49,.07-.88,.76-1.32,1.17,0-.14-.02-.28-.03-.43-1.57-.1-3.17-.48-4.69-.25-2.71,.4-5.14-.58-7.68-1.03-.3-.05-.59-.25-.87-.22-2.17,.23-3.85-.98-5.67-1.82-1.11-.51-2.26-.94-3.39-1.43-.39-.17-.71-.49-1.11-.62-1.04-.35-2.15-.54-3.16-.96-1.02-.42-1.93-1.09-2.93-1.54-2.41-1.1-4.47-2.59-6.17-4.65-.3-.36-1.2-.36-1.81-.32-3.03,.2-4.38,2.7-2.96,5.38,.12,.22,.22,.48,.24,.73,.24,3.56,.45,7.13,.72,10.68,.05,.7,.39,1.38,.46,2.09,.07,.66,.18,1.46-.11,1.99-.59,1.08-.56,2.02,0,3.06,.19,.36,.3,.82,.3,1.24,.03,4.87,.04,9.74,.02,14.6,0,.49-.34,.97-.4,1.46-.11,.88-.45,1.92-.13,2.63,.68,1.47,.48,2.68,.06,4.19-.42,1.51-.33,3.33,.1,4.85,.49,1.72-.83,4.5-2.69,4.55-2.54,.08-5.08,.04-7.61,0-.99-.01-1.62-.46-2.03-1.5-.31-.78-1.02-1.59-1.77-1.98-1.32-.68-2.81-1.02-4.21-1.56-.75-.29-1.55-.6-2.17-1.1-2.66-2.11-5.6-3.54-8.96-4.17-.92-.17-1.78-.62-2.68-.91-.72-.24-1.45-.48-2.19-.64-2.21-.47-4.43-.93-6.66-1.33-.81-.15-1.66-.07-2.48-.19-1.01-.15-2-.4-3-.6-.26-.05-.53-.12-.78-.08-2.41,.44-4.8-.25-7.22-.11-1.01,.06-2.05-.43-3.08-.63-.56-.1-1.13-.11-1.7-.15-2.74-.18-5.56,0-8.18-.65-2.3-.57-4.57-.31-6.81-.72-1.7-.31-3.34-1.02-5.04-1.31-1.45-.25-3.01,.04-4.44-.28-3.86-.88-7.86-.19-11.64-.9-3.11-.59-6.14-.28-9.18-.58-1.42-.14-2.51,.52-3.68,1.01-2.3,.97-4.58,.94-6.87,0-1.97-.82-3.96-1.59-5.94-2.39-.2-.08-.44-.14-.57-.29-.79-.92-1.78-1.19-2.99-1.28C.71,118.89,0,117.94,0,116.2c0-.22,0-.44,0-.66,0-3.03,.97-4.17,3.95-4.98,2.67-.72,5.22-.8,7.67,.72,.34,.21,.85,.21,1.28,.18,1.71-.12,3.19,.53,4.67,1.27,.4,.2,.93,.22,1.4,.23,2.89,.06,5.79-.07,8.66,.18,2.24,.19,4.44,.85,6.66,1.29,.38,.08,.78,.09,1.17,.1,2.89,.03,5.79-.09,8.66,.11,2.62,.18,5.21,.7,7.81,1.07,.04,0,.08,.03,.12,.04,2.61,.33,5.22,.64,7.83,.99,.58,.08,1.14,.32,1.71,.46,.37,.09,.8,.29,1.13,.18,2.1-.67,4.25-.08,6.17,.33,2.74,.59,5.51,.09,8.11,.72,2.29,.56,4.66,.05,6.77,.75,2.46,.82,4.9,.38,7.32,.73,1.65,.24,3.27,.66,4.9,1,.3,.06,.6,.14,.9,.16,2.99,.17,5.74,1.23,8.5,2.27,1.19,.45,2.57,.47,3.7,1.02,1.83,.89,4.02,.32,5.73,1.72,.97,.8,2.5,.43,3.28-.32-.17-1.08-.44-2.03-.45-2.99-.03-2.32,0-4.64,.12-6.95,.07-1.27,.66-2.54,.56-3.78-.16-2.11-.67-4.19-1.08-6.51,.5-.71,.94-1.64,.56-2.9-.27-.89-.09-1.91-.18-2.87-.05-.5-.24-.99-.38-1.48-.06-.2-.28-.46-.21-.59,1.08-2.09-.38-4.08-.26-6.15,.08-1.42-.93-2.87-1-4.33-.09-1.89-1.39-2.92-2.24-4.31-.88-1.44,.06-2.81,.68-4.14,.25-.53,.55-1.09,.58-1.65,.07-1.53,.41-3.21-.09-4.56-.86-2.29-.57-4.59-.83-6.88-.19-1.63-1.02-3.18-1.25-4.81-.18-1.29,.11-2.65,.21-3.97,.01-.16,.2-.33,.17-.47-.22-1.18-.45-2.35-.7-3.53-.38-1.77-.84-3.52-1.17-5.29-.33-1.74-1.03-2.14-2.65-1.42-.34,.15-.77,.16-1.15,.17-2.1,.03-4.21-.04-6.3,.09-2.49,.16-4.96,.52-7.44,.75-3.18,.3-6.45,.22-9.53,.92-4.35,.99-8.72,.79-12.98,.38-3.02-.29-6.02-.52-9.03-.44-1.61,.04-3.21,.54-4.81,.83-.81,.15-1.62,.29-2.43,.43-1.46,.24-2.81,.73-3.79,1.9-1.4,1.67-4.65,1.65-6.04,0-.72-.85-1.59-1.57-2.3-2.43-.51-.61-.86-1.34-1.21-1.9,.5-1.23,.78-2.45,1.45-3.4,.63-.9,1.57-1.93,2.55-2.16,1.32-.31,2.8,.11,4.22,.18,.69,.03,1.41,.08,2.08-.05,1.75-.34,3.33-1.21,5.22-1.29,2.45-.11,4.88-.76,7.32-1.17,.17-.03,.38-.12,.5-.05,1.76,1.06,3.67,.39,5.51,.54,.96,.08,1.92,.22,3.28,.38,.48-.34,1.27-.22,2.34,.11,1.33,.41,2.9,.06,4.36,0,.28-.01,.54-.31,.83-.34,2.52-.3,5.05-.7,7.58-.84,5.01-.28,10.03-.3,15.03-.7,1.82-.14,3.62-.95,5.35-1.65,.52-.21,.8-1.06,1.16-1.64,.34-.54,.6-1.12,.96-1.64,.81-1.15,2.32-1.42,3.55-.72,.4,.22,.86,.41,1.3,.46,2.04,.21,3.15,1.37,3.31,3.37,.19,2.28,.14,4.64,.8,6.79,.7,2.26,.87,4.57,1.39,6.81,.38,1.6,.58,2.92,0,4.48-.27,.74,.17,1.74,.3,2.63,.07,.47,.16,.93,.24,1.4,.24,1.48,.47,2.97,.7,4.45,.03,.17,.11,.4,.04,.51-.78,1.17-.04,2.33,.13,3.42,.34,2.21,.97,4.38,1.52,6.56,.25,1.01,.87,.9,1.58,.45,.28-.18,.61-.31,.93-.39,1.32-.33,2.66-.63,3.98-.94,.78-.19,1.57-.38,2.35-.58,1.9-.48,3.79-.97,5.69-1.45,.21-.05,.42-.11,.64-.13,2.21-.2,4.49-.13,6.62-.66,2.26-.56,4.6-.35,6.77-.93,1.56-.42,3.09-.3,4.59-.59,1.78-.34,3.5-.97,5.23-1.51,.2-.06,.44-.34,.48-.55,.3-1.55,.62-3.1,.77-4.66,.06-.58-.42-1.2-.47-1.82-.09-1.33-.14-2.67-.05-3.99,.06-.96,.53-1.9,.54-2.86,.08-4.98,.04-9.97,.13-14.95,.02-1.04,.56-2.08,.61-3.12,.1-2.23,.47-4.57-.08-6.66-.85-3.25-.3-6.5-.72-9.7-.3-2.27-1.15-4.48-1.34-6.76-.23-2.91-.05-5.85-.03-8.77,0-.08,.04-.2,.1-.24,1.5-.94,2.61-2.79,4.63-2.5,1.83,.26,3.34,1.17,4.4,2.92,.82,1.34,.79,2.68,.85,4.1,.1,2.3,.25,4.6,.47,6.89,.12,1.27,.58,2.51,.63,3.77,.03,.9-.75,1.91-.54,2.7,1.09,3.95,.32,7.97,.66,11.93,.05,.53,.37,1.04,.48,1.58,.11,.54,.19,1.11,.11,1.65-.14,.96-.42,1.9-.62,2.86-.27,1.29-.61,2.58-.73,3.89-.06,.62,.43,1.28,.47,1.93,.05,.99-.04,1.99-.14,2.98-.03,.37-.34,.72-.34,1.08-.04,4.02-.06,8.04-.05,12.06,0,.3,.19,.81,.38,.85,.32,.08,.81-.02,1.06-.24,1.33-1.2,2.59-2.48,3.92-3.68,.47-.42,1.07-.68,1.61-1.03,.88-.57,1.75-1.16,2.64-1.73,1.36-.87,2.71-1.76,4.11-2.57,1.73-1.01,3.42-2.15,5.26-2.87,1.37-.54,2.73-.96,4.08-1.66,1.19-.62,3-.29,4.48-.06,1.31,.2,2.54,.93,3.84,1.21,.47,.1,1.07-.42,1.63-.6,2.55-.84,5.1-1.69,7.67-2.46,1.22-.36,2.52-.43,3.73-.82,3.53-1.12,7.16-.63,10.75-.72,.64-.02,1.28,.43,1.94,.55,.66,.12,1.48,.34,2,.07,1.73-.87,3.47-1.68,4.91-3.15,1.63-1.66,3.63-1.25,5.82-.09,2.17,1.15,2.41,2.8,2.22,4.85-.13,1.45-.01,2.87-1.16,4.15-.65,.72-.69,1.98-1.01,3-.26,.8-.53,1.6-.61,2.49,2.13-1.63,4.36-3.12,5.06-5.88,.3-1.19,.48-2.41,.81-3.59,.19-.69,.58-1.32,.86-1.99,.29-.7,.61-1.4,.84-2.12,.63-1.98,1.72-3.55,3.59-4.57,1.28-.7,5.15-.45,5.56,.68,.53,1.45,.54,3.09,.73,4.66,.03,.28-.22,.6-.18,.88,.21,1.63-.59,2.85-1.42,4.13-.52,.8-.68,1.82-1.03,2.72-.17,.43-.4,.83-.62,1.27,.84,1.22,2.82,1.65,4.16,.77,1.63-1.06,3.12-2.35,4.84-3.25,1.17-.61,2.23-1.16,3.05-2.24,1.06-1.41,2-2.99,1.87-4.66-.17-2.15,1.02-3.54,1.87-5.19,.53-1.04,.83-2.19,1.29-3.26,.78-1.81,.86-4.08,3.16-4.92,.16-.06,.35-.2,.48-.16,1.03,.29,2.18,.41,3.03,.97,.85,.56,1.63,1.43,1.6,2.68,0,.31,.26,.63,.34,.95,.12,.53,.31,1.08,.26,1.6-.12,1.14-.37,2.26-.59,3.39-.57,2.93-1.07,5.86-2.62,8.51-.77,1.31-1.29,2.78-1.81,4.22-.15,.43-.1,1.24,.18,1.43,.39,.27,1.29,.39,1.58,.14,1.66-1.43,3.89-1.21,5.69-2.17,1.28-.68,2.63-1.26,3.84-2.06,.55-.36,.79-1.15,1.22-1.7,1.07-1.36,1.72-2.78,1.54-4.62-.31-3.09,.81-5.78,2.72-8.19,.47-.6,.5-1.57,1-2.13,1.2-1.36,2.59-2.55,3.83-3.87,.99-1.05,2.04-2.11,2.74-3.34,.44-.78,.94-1.15,1.7-1.42,.72-.26,1.4-.62,2.11-.89,.18-.07,.48-.09,.63,0,1.08,.74,2.13,1.51,3.39,2.42,.18-.44,.62-1.08,.72-1.78,.24-1.75,1.26-2.75,2.95-3.23,3.47-.99,6.7-2.4,8.93-5.53,.88-1.24,1.99-2.27,2.56-3.76,.39-1.02,3.06-1.42,4.2-.87,.38,.19,.81,.27,1.19,.46,.62,.32,1.26,.62,1.8,1.05,2.13,1.66,2.12,4.2,1.44,6.18-1.01,2.96-.34,5.86-.65,8.76-.05,.49-.34,.95-.46,1.43-.16,.66-.32,1.34-.37,2.01-.2,2.59-.05,5.27-.65,7.76-.38,1.59-.64,3.13-.52,4.69,.12,1.6,.55,3.18,.85,4.82,1.19-.34,2.32-.7,3.46-.99,.74-.19,1.61-.57,2.23-.33,1.37,.52,2.28-.18,3.38-.67,1.12-.5,2.35-.84,3.57-1.02,2.47-.38,4.76-1.39,7.33-1.59,1.41-.11,3.07-.14,4.4-.68,1.99-.82,4-.52,5.99-.8,1.75-.25,3.43-.92,5.17-1.28,.93-.19,1.92-.07,2.87-.2,2.77-.36,5.52-.78,8.28-1.17,.13-.02,.26-.06,.39-.07,4.01-.27,8.02-.51,12.03-.82,.83-.06,1.63-.45,2.45-.6,.72-.13,1.47-.19,2.2-.21,2.9-.06,5.67-.8,8.49-1.35,1.53-.3,3.13-.23,4.71-.26,1.18-.03,2.37,.16,3.54,.05,3.82-.36,7.64-.79,11.46-1.23,1.4-.16,2.79-.49,4.2-.58,.73-.04,1.53,.51,2.23,.39,1.5-.26,2.95-.81,4.43-1.19,.45-.12,1.05-.29,1.39-.1,1.6,.91,3.08,.71,4.7,.03,.75-.31,1.74-.02,2.6-.14,1.08-.16,2.14-.48,3.21-.71,.42-.09,.87-.12,1.3-.12,1.84-.02,3.7,.14,5.51-.08,2.02-.24,3.98-.92,5.99-1.24,1.54-.25,3.13-.18,4.69-.35,2.18-.24,4.34-.57,6.52-.84,.44-.05,.89-.02,1.34,0,.35,.01,.71,.16,1.04,.09,3.59-.78,7.17,.36,10.76,0,2.95-.29,6.03,.03,8.85-.68,2.7-.68,5.35-.29,7.99-.65,.96-.13,1.91-.49,2.83-.82,1.07-.38,2.12-.84,3.17-1.27,.12-.05,.26-.14,.37-.12,1.08,.24,2.19,.4,3.22,.78,1.1,.4,1.58,1.38,2.16,2.4,.77,1.36,.67,2.68,.62,4.04-.08,1.91-1.51,3.1-3.4,3.23-3.32,.22-6.65,.44-9.95,.84-2.11,.25-4.18,.89-6.28,1.2-.65,.1-1.37-.47-2.07-.49-2.89-.08-5.78-.08-8.66-.08-3.63,0-7.26,.04-10.9,.02-.44,0-.93-.19-1.33-.41-1.13-.62-3.22-.33-4.3,.41-.86,.59-1.9,.91-2.87,1.34-.42,.19-.86,.36-1.31,.47-.36,.09-.76,.18-1.12,.12-1-.16-1.97-.48-2.97-.58-1.08-.1-2.2,.1-3.28-.05-1.47-.21-2.55,.62-3.77,1.13-.47,.19-.94,.38-1.43,.5-.89,.23-1.79,.46-2.7,.59-.44,.06-.91-.16-1.37-.18-.9-.03-1.8,0-2.7-.01-.95,0-1.91-.04-2.86-.03-.81,0-1.64-.06-2.42,.12-1.07,.24-2.09,.72-3.15,1-.33,.09-.84-.03-1.1-.25-.66-.55-1.19-.55-1.85,0-.26,.22-.73,.27-1.1,.28-1.66,.03-3.33-.07-4.99,.04-1.04,.06-2.06,.5-3.1,.59-1.05,.09-2.21,.18-3.17-.17-.82-.3-1.35-.43-1.96,.21-.88,.93-1.72,1.17-2.98,.4-.64-.39-1.77-.11-2.64,.06-1.2,.25-2.36,.72-3.56,1.03-1.2,.31-2.42,.62-3.65,.73-.67,.06-1.37-.46-2.06-.46-2.96-.01-5.94-.1-8.88,.19-1.65,.17-3.22,1.11-4.87,1.52-.59,.15-1.33-.41-1.98-.37-3,.22-6.01,.43-8.98,.86-1.44,.21-2.78,1.03-4.22,1.3-.93,.18-1.95-.13-2.93-.24-.5-.06-1.01-.27-1.48-.21-1.05,.13-2.09,.37-3.12,.62-.87,.21-1.7,.62-2.57,.72-1.21,.15-2.45,.14-3.67,.11-1.71-.04-3.15,.46-4.52,1.57-.81,.66-2.01,1.07-3.07,1.15-2.24,.17-3.93,1.67-5.98,2.19-1.63,.41-3.32,.59-5,.78-1.51,.17-2.02,.75-1.62,2.2,.1,.35,.56,.77,.92,.85,1.43,.31,1.78,.79,1.43,2.21-.46,1.9-1.42,2.61-3.3,2.4-.36-.04-.74-.23-1.05-.43-.89-.58-1.71-1.28-2.63-1.8-.65-.37-1.21-.28-1.4,.69-.17,.87-.49,1.73-.88,2.52-.15,.3-.69,.62-1.02,.59-1.19-.12-2.35-.43-3.54-.58-.99-.12-2-.22-2.99-.15-1.93,.13-3.13-1.13-2.96-2.91,.02-.22,.06-.46-.02-.65-.63-1.46,.17-2.41,1.09-3.4,.27-.29,.44-.96,.3-1.3-.86-2.02-.49-3.99-.05-6.03,.21-.96,.09-2.01,.03-3.02-.02-.4-.39-.79-.4-1.19-.05-2.45-.24-4.92,0-7.34,.23-2.36,.92-4.67,1.4-7,.07-.34,0-.71,.09-1.04,.19-.82,.5-1.62,.62-2.44,.14-.9,.12-1.83,.17-2.74-.19-.1-.39-.2-.58-.3-.79,.91-1.42,2.11-2.41,2.67-2.12,1.21-2.5,2.96-2.26,5.1,.06,.56-.02,1.14,.02,1.7,.17,2.39-.74,4.48-1.99,6.39-1.64,2.5-3.5,4.87-6.09,6.45-.94,.57-1.5,1.41-2.26,2.08-.93,.83-2.07,1.63-3.25,1.92-1.94,.49-3.98,.58-5.98,.82-.3,.04-.62,0-.91-.09-1.8-.55-2.59-.31-3.24,1.33-.66,1.65-2.03,2.48-3.41,3.33-.25,.15-.53,.31-.69,.53-1.11,1.51-2.93,1.79-4.44,2.61-1.68,.9-3.44,1.25-5.34,1.39-1.35,.1-2.65,.86-3.98,1.28-.41,.13-.87,.2-1.29,.15-2.62-.29-4.41,1.12-6.01,2.88-1.14,1.25-2.1,2.67-3.3,3.85-.99,.97-2.14,1.77-2.82,3.05-.35,.67-.73,1.36-1.25,1.89-.52,.53-1.27,.82-1.85,1.3-.88,.73-1.66,1.6-2.55,2.31-1.49,1.19-2.77,2.61-4.59,3.46-1.5,.71-2.71,2.01-4.07,3.03-.64,.48-1.3,.96-2.01,1.33-1.64,.83-3.3,1.61-4.97,2.37-1.59,.72-3.19,1.42-4.8,2.08-.43,.18-.92,.24-1.4,.27-1.03,.08-2.11-.05-2.85,.96-.15,.2-.55,.33-.82,.32-2.67-.16-5.43,.23-7.89-1.32-1.32-.83-2.05-4.34-1.02-5.78,1.42-1.98,2.89-3.92,5.08-5.18,2.73-1.57,5.42-3.19,8.09-4.87,1.47-.92,2.8-2.07,4.28-2.97,1.37-.84,2.87-1.47,4.3-2.23,1.71-.92,3.43-1.84,5.09-2.85,1.73-1.06,3.4-2.24,5.42-3.59Zm-81.9,14.01c-.07,1.12-.22,2.21,1.35,2.49,.59,.11,1.1,.63,1.68,.89,1.31,.58,2.62,1.14,3.96,1.64,.33,.12,.78,0,1.15-.11,.61-.18,1.21-.4,1.79-.65,1.62-.72,3.47-1.19,4.8-2.28,1.74-1.42,3.46-2.95,4.08-5.44,.39-1.56,1.33-2.99,1.52-4.69,.09-.82,.59-1.59,.94-2.38,.67-1.5,1.4-2.98,2.02-4.5,.17-.41,.12-.96,.02-1.42-.16-.73-.86-.87-1.36-.3-.91,1.04-1.99,1.69-3.41,1.73-.41,.01-.84,.18-1.2,.37-1.66,.87-3.28,1.83-4.97,2.64-2.07,.99-3.95,2.27-5.76,3.65-1.19,.9-2.3,1.91-3.52,2.75-1.98,1.37-3.04,3.2-3.1,5.59Zm49.28-18.58c-.11-.05-.22-.09-.33-.14,0-.57,0-1.14,0-1.7,0-.84-.25-1.23-1.19-.86-.91,.36-1.86,.78-2.81,.83-1.37,.07-2.37,.63-3.23,1.61-.25,.28-.57,.54-.91,.71-3.18,1.56-5.79,3.88-8.27,6.34-.38,.38-.85,.93-.84,1.39,.04,1.8-.45,3.37-1.5,4.81-.1,.14,.2,.86,.35,.87,1.17,.08,2.4,.28,3.5,0,2.18-.53,4.31-1.32,6.44-2.05,1.24-.43,2.48-.89,3.65-1.48,1.05-.53,2.08-1.16,3-1.9,.88-.71,1.44-1.61,.5-2.79-.21-.26-.08-.89,.06-1.3,.5-1.47,1.06-2.91,1.6-4.36Zm-80.11,24.91c.68,.48,1.14,.92,1.69,1.17,1.47,.66,2.96,1.3,4.48,1.82,2,.69,4.05,1.24,6.07,1.89,1.33,.42,2.65,.87,3.96,1.36,1.95,.73,3.34-.19,3.39-2.3,.01-.48-.11-1.05,.11-1.42,1.16-1.96,.48-4.09,.66-6.13,.09-1.06-.52-1.46-1.45-1.28-.78,.15-1.51,.58-2.3,.74-1.72,.36-3.46,.62-5.2,.93-.17,.03-.34,.08-.51,.12-1.45,.38-2.89,1.04-4.35,1.08-2.33,.07-4.27,1-6.57,2.03ZM309.94,27.04c-.09,.29-.23,.53-.21,.76,.15,2.06-.73,3.87-1.53,5.63-.69,1.52-2.07,2.71-2.28,4.5-.02,.14-.36,.21-.49,.36-.84,1.05-1.76,2.06-2.45,3.21-.38,.62-.16,1.37,.84,1.21,.48-.07,.97-.3,1.37-.58,.94-.64,1.84-1.34,2.73-2.05,1.37-1.09,2.88-2.19,3.24-3.97,.61-3.06,1.72-6.28-1.22-9.08Zm-77.36,54.63l.22,.69c.61-.16,1.24-.26,1.81-.49,1.54-.61,3.06-1.27,4.58-1.94,1.65-.72,3.29-1.45,4.9-2.24,.23-.11,.43-.6,.38-.87-.04-.21-.46-.5-.73-.5-.46-.01-1.04,.02-1.36,.28-2.01,1.61-4.51,2.19-6.74,3.35-1.04,.54-2.05,1.14-3.07,1.71Zm245.17-47.93c.08,.22,.17,.43,.25,.65,.59-.2,1.19-.4,1.78-.6-.1-.21-.25-.62-.29-.61-.59,.15-1.16,.36-1.73,.56Zm-67.45,6.64c-.39-.35-.62-.71-.84-.7-.23,0-.66,.41-.63,.56,.06,.3,.34,.62,.61,.78,.1,.06,.45-.33,.86-.64Z"/>
    <path class="cls-1" d="M174.67,75.63c.06-2.39,1.12-4.22,3.1-5.59,1.22-.84,2.34-1.85,3.52-2.75,1.82-1.38,3.69-2.65,5.76-3.65,1.69-.81,3.3-1.78,4.97-2.64,.37-.19,.8-.36,1.2-.37,1.42-.05,2.5-.7,3.41-1.73,.5-.57,1.2-.44,1.36,.3,.1,.46,.15,1.01-.02,1.42-.62,1.52-1.35,3-2.02,4.5-.35,.78-.85,1.56-.94,2.38-.19,1.7-1.13,3.13-1.52,4.69-.62,2.48-2.34,4.01-4.08,5.44-1.33,1.09-3.17,1.55-4.8,2.28-.58,.26-1.18,.48-1.79,.65-.37,.11-.82,.23-1.15,.11-1.34-.49-2.66-1.06-3.96-1.64-.58-.26-1.09-.78-1.68-.89-1.57-.28-1.42-1.37-1.35-2.49Z"/>
    <path class="cls-1" d="M223.95,57.06c-.54,1.45-1.11,2.89-1.6,4.36-.14,.41-.27,1.04-.06,1.3,.94,1.18,.38,2.07-.5,2.79-.91,.74-1.94,1.38-3,1.9-1.17,.59-2.41,1.05-3.65,1.48-2.13,.74-4.26,1.52-6.44,2.05-1.11,.27-2.34,.07-3.5,0-.14,0-.45-.73-.35-.87,1.05-1.45,1.54-3.02,1.5-4.81,0-.46,.46-1.02,.84-1.39,2.48-2.46,5.08-4.78,8.27-6.34,.34-.17,.66-.42,.91-.71,.87-.98,1.86-1.54,3.23-1.61,.95-.05,1.9-.47,2.81-.83,.94-.37,1.19,.02,1.19,.86,0,.57,0,1.14,0,1.7,.11,.05,.22,.09,.33,.14Z"/>
    <path class="cls-1" d="M143.84,81.97c2.3-1.03,4.24-1.97,6.57-2.03,1.46-.04,2.9-.7,4.35-1.08,.17-.04,.34-.09,.51-.12,1.73-.31,3.48-.57,5.2-.93,.78-.16,1.51-.6,2.3-.74,.93-.18,1.55,.23,1.45,1.28-.18,2.04,.5,4.17-.66,6.13-.22,.37-.09,.94-.11,1.42-.06,2.11-1.44,3.03-3.39,2.3-1.31-.49-2.63-.93-3.96-1.36-2.02-.64-4.07-1.2-6.07-1.89-1.52-.52-3.01-1.16-4.48-1.82-.55-.24-1.01-.69-1.69-1.17Z"/>
    <path class="cls-1" d="M232.58,81.67c1.02-.57,2.03-1.17,3.07-1.71,2.22-1.15,4.73-1.74,6.74-3.35,.33-.26,.91-.29,1.36-.28,.26,0,.69,.29,.73,.5,.05,.27-.15,.75-.38,.87-1.61,.79-3.26,1.52-4.9,2.24-1.52,.67-3.04,1.32-4.58,1.94-.58,.23-1.21,.33-1.81,.49l-.22-.69Z"/>
  </g>
</svg>