<?xml version="1.0" encoding="UTF-8"?>
<svg id="Layer_2" data-name="Layer 2" xmlns="http://www.w3.org/2000/svg" viewBox="0 0 659.74 255.15">
  <defs>
    <style>
      .cls-1 {
        fill: #004341;
      }
    </style>
  </defs>
  <g id="Layer_1-2" data-name="Layer 1">
    <g>
      <path class="cls-1" d="M62.83,117.37c-.02,.63-.04,1.27-.04,1.92v84.07h0c0,17.33-14.06,31.39-31.39,31.39S0,220.69,0,203.35c0,28.61,23.19,51.8,51.8,51.8s51.8-23.19,51.8-51.8h-.31c.2-1.63,.31-3.28,.31-4.96V78.47c-21.89,0-39.77,17.25-40.78,38.9Z"/>
      <circle class="cls-1" cx="20.41" cy="203.35" r="20.41"/>
      <path class="cls-1" d="M115.51,0c-28.61,0-51.8,23.19-51.8,51.8,0-17.33,14.06-31.39,31.4-31.39s31.39,14.06,31.39,31.39h0V183.64c0,.64,.01,1.29,.04,1.92,1.01,21.65,18.88,38.9,40.78,38.9V56.76C167.32,20.13,142.7,0,115.51,0Z"/>
      <circle class="cls-1" cx="84.12" cy="51.8" r="20.41" transform="translate(4.07 109.7) rotate(-67.5)"/>
    </g>
    <g>
      <g>
        <path class="cls-1" d="M236.57,112.36c-3.22,0-6.02-.34-8.41-1.01v-11.86c2.45,.61,4.69,.92,6.71,.92,3.13,0,5.36-.97,6.71-2.92,1.35-1.95,2.02-4.99,2.02-9.13V25.35h14.25v62.91c0,7.85-1.79,13.82-5.38,17.93-3.59,4.11-8.89,6.16-15.91,6.16Z"/>
        <path class="cls-1" d="M320.41,66.79c0,8.37-2.21,14.92-6.62,19.64s-10.56,7.08-18.44,7.08c-4.94,0-9.29-1.08-13.06-3.24-3.77-2.16-6.67-5.26-8.69-9.31-2.02-4.05-3.04-8.77-3.04-14.16,0-8.4,2.19-14.93,6.58-19.59,4.38-4.66,10.55-6.99,18.49-6.99,4.94,0,9.29,1.07,13.06,3.22,3.77,2.15,6.67,5.23,8.69,9.24,2.02,4.02,3.03,8.72,3.03,14.12Zm-35.55,0c0,5.09,.84,8.94,2.51,11.54,1.67,2.61,4.39,3.91,8.16,3.91s6.43-1.3,8.07-3.89c1.64-2.59,2.46-6.44,2.46-11.56s-.83-8.9-2.48-11.45c-1.66-2.54-4.37-3.82-8.14-3.82s-6.44,1.27-8.09,3.8c-1.66,2.53-2.48,6.35-2.48,11.47Z"/>
        <path class="cls-1" d="M360.6,40.21c6.07,0,10.82,2.37,14.25,7.1,3.43,4.74,5.15,11.23,5.15,19.47s-1.77,15.07-5.31,19.73c-3.54,4.66-8.36,6.99-14.46,6.99s-10.78-2.19-14.21-6.58h-.97l-2.34,5.66h-10.72V21.03h14.03v16.65c0,2.12-.18,5.5-.55,10.16h.55c3.28-5.09,8.14-7.63,14.58-7.63Zm-4.51,11.22c-3.47,0-5.99,1.07-7.59,3.2-1.59,2.13-2.42,5.65-2.48,10.55v1.52c0,5.52,.82,9.47,2.46,11.86,1.64,2.39,4.24,3.59,7.79,3.59,2.88,0,5.17-1.33,6.88-3.98,1.7-2.65,2.55-6.51,2.55-11.57s-.86-8.85-2.58-11.38c-1.72-2.53-4.06-3.79-7.04-3.79Z"/>
        <path class="cls-1" d="M424.24,92.58l-2.71-6.99h-.37c-2.36,2.97-4.79,5.03-7.29,6.18-2.5,1.15-5.76,1.72-9.77,1.72-4.94,0-8.82-1.41-11.66-4.23-2.83-2.82-4.25-6.84-4.25-12.05s1.91-9.48,5.73-12.07c3.82-2.59,9.57-4.02,17.27-4.3l8.92-.28v-2.25c0-5.21-2.67-7.82-8-7.82-4.11,0-8.94,1.24-14.49,3.73l-4.65-9.47c5.92-3.1,12.48-4.65,19.68-4.65s12.19,1.5,15.87,4.51c3.68,3,5.52,7.57,5.52,13.7v34.26h-9.8Zm-4.14-23.82l-5.43,.18c-4.08,.12-7.11,.86-9.11,2.21-1.99,1.35-2.99,3.4-2.99,6.16,0,3.95,2.27,5.93,6.81,5.93,3.25,0,5.85-.94,7.79-2.81,1.95-1.87,2.92-4.35,2.92-7.45v-4.23Z"/>
        <path class="cls-1" d="M441.12,41.17h15.36l9.7,28.92c.83,2.52,1.4,5.49,1.7,8.92h.28c.34-3.16,.99-6.13,1.98-8.92l9.52-28.92h15.04l-21.75,57.99c-1.99,5.36-4.84,9.38-8.53,12.05-3.69,2.67-8.01,4-12.95,4-2.42,0-4.8-.26-7.13-.78v-11.13c1.69,.4,3.53,.6,5.52,.6,2.48,0,4.65-.76,6.51-2.28,1.85-1.52,3.3-3.81,4.35-6.88l.83-2.53-20.42-51.05Z"/>
        <path class="cls-1" d="M525.32,93.5c-8.28,0-14.75-2.28-19.41-6.85-4.66-4.57-6.99-11.04-6.99-19.41s2.15-15.27,6.46-19.98c4.31-4.71,10.26-7.06,17.87-7.06s12.92,2.07,16.97,6.21c4.05,4.14,6.07,9.86,6.07,17.15v6.81h-33.16c.15,3.98,1.33,7.1,3.54,9.33,2.21,2.24,5.3,3.36,9.29,3.36,3.1,0,6.02-.32,8.78-.97,2.76-.64,5.64-1.67,8.65-3.08v10.85c-2.45,1.23-5.08,2.14-7.86,2.74-2.79,.6-6.19,.9-10.21,.9Zm-1.98-43.32c-2.97,0-5.3,.94-6.99,2.83-1.69,1.88-2.65,4.56-2.9,8.02h19.68c-.06-3.46-.97-6.14-2.71-8.02-1.75-1.89-4.11-2.83-7.08-2.83Z"/>
        <path class="cls-1" d="M586.39,40.21c1.9,0,3.48,.14,4.74,.41l-1.06,13.15c-1.13-.3-2.51-.46-4.14-.46-4.48,0-7.96,1.15-10.46,3.45-2.5,2.3-3.75,5.52-3.75,9.66v26.17h-14.03V41.17h10.62l2.07,8.65h.69c1.59-2.88,3.75-5.21,6.46-6.97,2.71-1.76,5.66-2.64,8.85-2.64Z"/>
      </g>
      <g>
        <path class="cls-1" d="M277.78,207.18l-4.87-16h-24.51l-4.87,16h-15.36l23.73-67.51h17.43l23.82,67.51h-15.36Zm-8.28-27.96c-4.51-14.5-7.04-22.7-7.61-24.6-.57-1.9-.97-3.4-1.22-4.51-1.01,3.93-3.91,13.63-8.69,29.11h17.52Z"/>
        <path class="cls-1" d="M321.37,208.09c-16,0-24-8.78-24-26.35,0-8.74,2.18-15.41,6.53-20.03,4.35-4.61,10.59-6.92,18.72-6.92,5.95,0,11.28,1.16,16,3.49l-4.14,10.85c-2.21-.89-4.26-1.62-6.16-2.18-1.9-.57-3.8-.85-5.7-.85-7.3,0-10.94,5.18-10.94,15.54s3.65,15.08,10.94,15.08c2.7,0,5.2-.36,7.5-1.08,2.3-.72,4.6-1.85,6.9-3.38v12c-2.27,1.44-4.56,2.44-6.87,2.99-2.32,.55-5.23,.83-8.76,.83Z"/>
        <path class="cls-1" d="M381.57,207.18l-2.71-6.99h-.37c-2.36,2.97-4.79,5.03-7.29,6.18-2.5,1.15-5.76,1.72-9.77,1.72-4.94,0-8.82-1.41-11.66-4.23-2.83-2.82-4.25-6.84-4.25-12.05s1.91-9.48,5.73-12.07c3.82-2.59,9.57-4.02,17.27-4.3l8.92-.28v-2.25c0-5.21-2.67-7.82-8-7.82-4.11,0-8.94,1.24-14.49,3.73l-4.65-9.47c5.92-3.1,12.48-4.65,19.68-4.65s12.19,1.5,15.87,4.51c3.68,3,5.52,7.57,5.52,13.7v34.26h-9.8Zm-4.14-23.82l-5.43,.18c-4.08,.12-7.11,.86-9.11,2.21-1.99,1.35-2.99,3.4-2.99,6.16,0,3.95,2.27,5.93,6.81,5.93,3.25,0,5.85-.94,7.79-2.81,1.95-1.87,2.92-4.35,2.92-7.45v-4.23Z"/>
        <path class="cls-1" d="M422.08,208.09c-6.04,0-10.78-2.34-14.23-7.04-3.45-4.69-5.17-11.19-5.17-19.5s1.76-15,5.27-19.71c3.51-4.71,8.35-7.06,14.51-7.06,6.47,0,11.41,2.51,14.81,7.54h.46c-.71-3.83-1.06-7.25-1.06-10.25v-16.46h14.07v71.55h-10.76l-2.71-6.67h-.6c-3.19,5.06-8.05,7.59-14.58,7.59Zm4.92-11.17c3.59,0,6.21-1.04,7.89-3.13,1.67-2.09,2.58-5.63,2.74-10.62v-1.52c0-5.52-.85-9.47-2.55-11.86-1.7-2.39-4.47-3.59-8.3-3.59-3.13,0-5.56,1.33-7.29,3.98-1.73,2.65-2.6,6.51-2.6,11.57s.87,8.85,2.62,11.38c1.75,2.53,4.25,3.79,7.5,3.79Z"/>
        <path class="cls-1" d="M488.67,208.09c-8.28,0-14.75-2.28-19.41-6.85-4.66-4.57-6.99-11.04-6.99-19.41s2.15-15.27,6.46-19.98c4.31-4.71,10.26-7.06,17.87-7.06s12.92,2.07,16.97,6.21c4.05,4.14,6.07,9.86,6.07,17.15v6.81h-33.16c.15,3.98,1.33,7.1,3.54,9.33,2.21,2.24,5.3,3.36,9.29,3.36,3.1,0,6.02-.32,8.78-.97,2.76-.64,5.64-1.67,8.65-3.08v10.85c-2.45,1.23-5.08,2.14-7.86,2.74-2.79,.6-6.19,.9-10.21,.9Zm-1.98-43.32c-2.97,0-5.3,.94-6.99,2.83-1.69,1.88-2.65,4.56-2.9,8.02h19.68c-.06-3.46-.97-6.14-2.71-8.02-1.75-1.89-4.11-2.83-7.08-2.83Z"/>
        <path class="cls-1" d="M567.08,207.18h-14.02v-30.03c0-3.71-.62-6.49-1.86-8.35-1.24-1.85-3.2-2.78-5.86-2.78-3.59,0-6.19,1.32-7.82,3.95-1.62,2.64-2.44,6.97-2.44,13.01v24.19h-14.03v-51.41h10.72l1.88,6.58h.78c1.38-2.36,3.37-4.21,5.98-5.54,2.61-1.33,5.6-2,8.97-2,7.7,0,12.91,2.51,15.64,7.54h1.24c1.38-2.39,3.41-4.24,6.09-5.56,2.68-1.32,5.71-1.98,9.08-1.98,5.82,0,10.23,1.49,13.22,4.48,2.99,2.99,4.48,7.78,4.48,14.37v33.52h-14.07v-30.03c0-3.71-.62-6.49-1.86-8.35-1.24-1.85-3.2-2.78-5.86-2.78-3.43,0-6,1.23-7.7,3.68-1.7,2.45-2.55,6.35-2.55,11.68v25.8Z"/>
        <path class="cls-1" d="M606.16,155.76h15.36l9.7,28.92c.83,2.52,1.4,5.49,1.7,8.92h.28c.34-3.16,.99-6.13,1.98-8.92l9.52-28.92h15.04l-21.75,57.99c-1.99,5.36-4.84,9.38-8.53,12.05-3.69,2.67-8.01,4-12.95,4-2.42,0-4.8-.26-7.13-.78v-11.13c1.69,.4,3.53,.6,5.52,.6,2.48,0,4.65-.76,6.51-2.28,1.85-1.52,3.3-3.81,4.35-6.88l.83-2.53-20.42-51.05Z"/>
      </g>
    </g>
  </g>
</svg>