<?xml version="1.0" encoding="UTF-8"?>
<svg id="Layer_2" data-name="Layer 2" xmlns="http://www.w3.org/2000/svg" viewBox="0 0 167.32 255.15">
  <defs>
    <style>
      .cls-1 {
        fill: #004341;
      }
    </style>
  </defs>
  <g id="Layer_1-2" data-name="Layer 1">
    <g>
      <path class="cls-1" d="M62.83,117.37c-.02,.63-.04,1.27-.04,1.92v84.07h0c0,17.33-14.06,31.39-31.39,31.39S0,220.69,0,203.35c0,28.61,23.19,51.8,51.8,51.8s51.8-23.19,51.8-51.8h-.31c.2-1.63,.31-3.28,.31-4.96V78.47c-21.89,0-39.77,17.25-40.78,38.9Z"/>
      <circle class="cls-1" cx="20.41" cy="203.35" r="20.41"/>
      <path class="cls-1" d="M115.51,0c-28.61,0-51.8,23.19-51.8,51.8,0-17.33,14.06-31.39,31.4-31.39s31.39,14.06,31.39,31.39h0V183.64c0,.64,.01,1.29,.04,1.92,1.01,21.65,18.88,38.9,40.78,38.9V56.76C167.32,20.13,142.7,0,115.51,0Z"/>
      <circle class="cls-1" cx="84.12" cy="51.8" r="20.41" transform="translate(4.07 109.7) rotate(-67.5)"/>
    </g>
  </g>
</svg>